<svg xmlns="http://www.w3.org/2000/svg" width="300" height="300" viewBox="0 0 300 300" role="img" aria-label="Auto Mở Live logo">
  <defs>
    <linearGradient id="bg" x1="0" y1="0" x2="1" y2="1">
      <stop offset="0" stop-color="#1f2937"/>
      <stop offset="1" stop-color="#111827"/>
    </linearGradient>
    <linearGradient id="bell" x1="0" y1="0" x2="1" y2="1">
      <stop offset="0" stop-color="#f59e0b"/>
      <stop offset="1" stop-color="#f97316"/>
    </linearGradient>
  </defs>
  <rect width="300" height="300" rx="64" fill="url(#bg)"/>
  <path d="M150 72c-39 0-66 29-66 69v35l-18 27c-4 6 0 14 8 14h152c8 0 12-8 8-14l-18-27v-35c0-40-27-69-66-69Z" fill="url(#bell)"/>
  <path d="M124 229c5 16 15 24 26 24s21-8 26-24" fill="none" stroke="#fbbf24" stroke-width="14" stroke-linecap="round"/>
  <path d="M55 126c-14 17-14 41 0 58M245 126c14 17 14 41 0 58" fill="none" stroke="#38bdf8" stroke-width="13" stroke-linecap="round"/>
  <path d="M35 103c-27 31-27 73 0 104M265 103c27 31 27 73 0 104" fill="none" stroke="#7dd3fc" stroke-width="11" stroke-linecap="round" opacity=".9"/>
</svg>
